<svg width="76" height="76" viewBox="0 0 76 76" fill="none" xmlns="http://www.w3.org/2000/svg">
<path d="M37.7129 64V76L10 60V48L37.7129 64Z" fill="url(#paint0_linear_1846_2)"/>
<path d="M37.7129 48V60L10 44V32L37.7129 48Z" fill="url(#paint1_linear_1846_2)"/>
<path d="M37.7129 32V44L10 28V16L37.7129 32Z" fill="url(#paint2_linear_1846_2)"/>
<path d="M65.4258 48L37.7129 64L10 48L13.4639 46L37.7129 60L61.9619 46L65.4258 48Z" fill="url(#paint3_linear_1846_2)"/>
<path d="M65.4258 48L37.7129 64L10 48L13.4639 46L37.7129 60L61.9619 46L65.4258 48Z" fill="#07F49E" fill-opacity="0.2"/>
<path d="M61.9619 34L37.7129 48L10 32L13.4639 30L37.7129 44L55.0332 34V29.999L61.9619 34Z" fill="url(#paint4_linear_1846_2)"/>
<path d="M61.9619 34L37.7129 48L10 32L13.4639 30L37.7129 44L55.0332 34V29.999L61.9619 34Z" fill="#07F49E" fill-opacity="0.2"/>
<path d="M51.5693 8L37.7129 16L51.5693 24L37.7129 32L10 16L37.7129 0L51.5693 8Z" fill="url(#paint5_linear_1846_2)"/>
<path d="M51.5693 8L37.7129 16L51.5693 24L37.7129 32L10 16L37.7129 0L51.5693 8Z" fill="#07F49E" fill-opacity="0.2"/>
<path d="M65.4258 56L61.9619 62L37.7129 76V64L65.4258 48V56Z" fill="url(#paint6_linear_1846_2)"/>
<path d="M65.4258 36V44L37.7129 60V48L61.9619 34L65.4258 36Z" fill="url(#paint7_linear_1846_2)"/>
<path d="M55.0332 26V34L37.7129 44V32L51.5693 24L55.0332 26Z" fill="url(#paint8_linear_1846_2)"/>
<path d="M51.5693 20L48.1045 22L37.7129 16L51.5693 8V20Z" fill="url(#paint9_linear_1846_2)"/>
<defs>
<linearGradient id="paint0_linear_1846_2" x1="2.5" y1="-0.999999" x2="62.5" y2="75" gradientUnits="userSpaceOnUse">
<stop stop-color="#07F49E"/>
<stop offset="1" stop-color="#42047E"/>
</linearGradient>
<linearGradient id="paint1_linear_1846_2" x1="2.5" y1="-0.999999" x2="62.5" y2="75" gradientUnits="userSpaceOnUse">
<stop stop-color="#07F49E"/>
<stop offset="1" stop-color="#42047E"/>
</linearGradient>
<linearGradient id="paint2_linear_1846_2" x1="2.5" y1="-0.999999" x2="62.5" y2="75" gradientUnits="userSpaceOnUse">
<stop stop-color="#07F49E"/>
<stop offset="1" stop-color="#42047E"/>
</linearGradient>
<linearGradient id="paint3_linear_1846_2" x1="10" y1="2" x2="59.5" y2="85.5" gradientUnits="userSpaceOnUse">
<stop stop-color="#07F49E"/>
<stop offset="1" stop-color="#42047E"/>
</linearGradient>
<linearGradient id="paint4_linear_1846_2" x1="10" y1="2" x2="59.5" y2="85.5" gradientUnits="userSpaceOnUse">
<stop stop-color="#07F49E"/>
<stop offset="1" stop-color="#42047E"/>
</linearGradient>
<linearGradient id="paint5_linear_1846_2" x1="10" y1="2" x2="59.5" y2="85.5" gradientUnits="userSpaceOnUse">
<stop stop-color="#07F49E"/>
<stop offset="1" stop-color="#42047E"/>
</linearGradient>
<linearGradient id="paint6_linear_1846_2" x1="2.5" y1="-39.5" x2="70.5" y2="68.5" gradientUnits="userSpaceOnUse">
<stop stop-color="#07F49E"/>
<stop offset="1" stop-color="#42047E"/>
</linearGradient>
<linearGradient id="paint7_linear_1846_2" x1="2.5" y1="-39.5" x2="70.5" y2="68.5" gradientUnits="userSpaceOnUse">
<stop stop-color="#07F49E"/>
<stop offset="1" stop-color="#42047E"/>
</linearGradient>
<linearGradient id="paint8_linear_1846_2" x1="2.5" y1="-39.5" x2="70.5" y2="68.5" gradientUnits="userSpaceOnUse">
<stop stop-color="#07F49E"/>
<stop offset="1" stop-color="#42047E"/>
</linearGradient>
<linearGradient id="paint9_linear_1846_2" x1="2.5" y1="-39.5" x2="70.5" y2="68.5" gradientUnits="userSpaceOnUse">
<stop stop-color="#07F49E"/>
<stop offset="1" stop-color="#42047E"/>
</linearGradient>
</defs>
</svg>
