<svg width="56" height="76" viewBox="0 0 56 76" fill="none" xmlns="http://www.w3.org/2000/svg">
<path d="M27.7129 64V76L1.52588e-05 60V48L27.7129 64Z" fill="url(#paint0_linear_1840_123)"/>
<path d="M27.7129 48V60L1.52588e-05 44V32L27.7129 48Z" fill="url(#paint1_linear_1840_123)"/>
<path d="M27.7129 32V44L1.52588e-05 28V16L27.7129 32Z" fill="url(#paint2_linear_1840_123)"/>
<path d="M55.4258 48L27.7129 64L0 48L3.46387 46L27.7129 60L51.9619 46L55.4258 48Z" fill="url(#paint3_linear_1840_123)"/>
<path d="M55.4258 48L27.7129 64L0 48L3.46387 46L27.7129 60L51.9619 46L55.4258 48Z" fill="#07F49E" fill-opacity="0.2"/>
<path d="M51.9619 34L27.7129 48L0 32L3.46387 30L27.7129 44L45.0332 34V29.999L51.9619 34Z" fill="url(#paint4_linear_1840_123)"/>
<path d="M51.9619 34L27.7129 48L0 32L3.46387 30L27.7129 44L45.0332 34V29.999L51.9619 34Z" fill="#07F49E" fill-opacity="0.2"/>
<path d="M41.5693 8L27.7129 16L41.5693 24L27.7129 32L0 16L27.7129 0L41.5693 8Z" fill="url(#paint5_linear_1840_123)"/>
<path d="M41.5693 8L27.7129 16L41.5693 24L27.7129 32L0 16L27.7129 0L41.5693 8Z" fill="#07F49E" fill-opacity="0.2"/>
<path d="M55.4258 56L51.9619 62L27.7129 76V64L55.4258 48V56Z" fill="url(#paint6_linear_1840_123)"/>
<path d="M55.4258 36V44L27.7129 60V48L51.9619 34L55.4258 36Z" fill="url(#paint7_linear_1840_123)"/>
<path d="M45.0332 26V34L27.7129 44V32L41.5693 24L45.0332 26Z" fill="url(#paint8_linear_1840_123)"/>
<path d="M41.5693 20L38.1045 22L27.7129 16L41.5693 8V20Z" fill="url(#paint9_linear_1840_123)"/>
<defs>
<linearGradient id="paint0_linear_1840_123" x1="-7.5" y1="-0.999999" x2="52.5" y2="75" gradientUnits="userSpaceOnUse">
<stop stop-color="#07F49E"/>
<stop offset="1" stop-color="#42047E"/>
</linearGradient>
<linearGradient id="paint1_linear_1840_123" x1="-7.5" y1="-0.999999" x2="52.5" y2="75" gradientUnits="userSpaceOnUse">
<stop stop-color="#07F49E"/>
<stop offset="1" stop-color="#42047E"/>
</linearGradient>
<linearGradient id="paint2_linear_1840_123" x1="-7.5" y1="-0.999999" x2="52.5" y2="75" gradientUnits="userSpaceOnUse">
<stop stop-color="#07F49E"/>
<stop offset="1" stop-color="#42047E"/>
</linearGradient>
<linearGradient id="paint3_linear_1840_123" x1="2.07012e-06" y1="2" x2="49.5" y2="85.5" gradientUnits="userSpaceOnUse">
<stop stop-color="#07F49E"/>
<stop offset="1" stop-color="#42047E"/>
</linearGradient>
<linearGradient id="paint4_linear_1840_123" x1="2.07012e-06" y1="2" x2="49.5" y2="85.5" gradientUnits="userSpaceOnUse">
<stop stop-color="#07F49E"/>
<stop offset="1" stop-color="#42047E"/>
</linearGradient>
<linearGradient id="paint5_linear_1840_123" x1="2.07012e-06" y1="2" x2="49.5" y2="85.5" gradientUnits="userSpaceOnUse">
<stop stop-color="#07F49E"/>
<stop offset="1" stop-color="#42047E"/>
</linearGradient>
<linearGradient id="paint6_linear_1840_123" x1="-7.5" y1="-39.5" x2="60.5" y2="68.5" gradientUnits="userSpaceOnUse">
<stop stop-color="#07F49E"/>
<stop offset="1" stop-color="#42047E"/>
</linearGradient>
<linearGradient id="paint7_linear_1840_123" x1="-7.5" y1="-39.5" x2="60.5" y2="68.5" gradientUnits="userSpaceOnUse">
<stop stop-color="#07F49E"/>
<stop offset="1" stop-color="#42047E"/>
</linearGradient>
<linearGradient id="paint8_linear_1840_123" x1="-7.5" y1="-39.5" x2="60.5" y2="68.5" gradientUnits="userSpaceOnUse">
<stop stop-color="#07F49E"/>
<stop offset="1" stop-color="#42047E"/>
</linearGradient>
<linearGradient id="paint9_linear_1840_123" x1="-7.5" y1="-39.5" x2="60.5" y2="68.5" gradientUnits="userSpaceOnUse">
<stop stop-color="#07F49E"/>
<stop offset="1" stop-color="#42047E"/>
</linearGradient>
</defs>
</svg>
