<svg width="57" height="78" viewBox="0 0 57 78" fill="none" xmlns="http://www.w3.org/2000/svg">
<path d="M28.7129 65V77L1.00002 61V49L28.7129 65Z" fill="url(#paint0_linear_1842_295)"/>
<path d="M28.7129 49V61L1.00002 45V33L28.7129 49Z" fill="url(#paint1_linear_1842_295)"/>
<path d="M28.7129 33V45L1.00002 29V17L28.7129 33Z" fill="url(#paint2_linear_1842_295)"/>
<path d="M28.7129 65V77L1.00002 61V49L28.7129 65Z" stroke="white" stroke-miterlimit="1.41421" stroke-linejoin="round"/>
<path d="M28.7129 49V61L1.00002 45V33L28.7129 49Z" stroke="white" stroke-miterlimit="1.41421" stroke-linejoin="round"/>
<path d="M28.7129 33V45L1.00002 29V17L28.7129 33Z" stroke="white" stroke-miterlimit="1.41421" stroke-linejoin="round"/>
<path d="M56.4258 49L28.7129 65L1 49L4.46387 47L28.7129 61L52.9619 47L56.4258 49Z" fill="url(#paint3_linear_1842_295)"/>
<path d="M56.4258 49L28.7129 65L1 49L4.46387 47L28.7129 61L52.9619 47L56.4258 49Z" fill="#07F49E" fill-opacity="0.2"/>
<path d="M52.9619 35L28.7129 49L1 33L4.46387 31L28.7129 45L46.0332 35V30.999L52.9619 35Z" fill="url(#paint4_linear_1842_295)"/>
<path d="M52.9619 35L28.7129 49L1 33L4.46387 31L28.7129 45L46.0332 35V30.999L52.9619 35Z" fill="#07F49E" fill-opacity="0.2"/>
<path d="M42.5693 9L28.7129 17L42.5693 25L28.7129 33L1 17L28.7129 1L42.5693 9Z" fill="url(#paint5_linear_1842_295)"/>
<path d="M42.5693 9L28.7129 17L42.5693 25L28.7129 33L1 17L28.7129 1L42.5693 9Z" fill="#07F49E" fill-opacity="0.2"/>
<path d="M56.4258 49L28.7129 65L1 49L4.46387 47L28.7129 61L52.9619 47L56.4258 49Z" stroke="white" stroke-miterlimit="1.41421" stroke-linejoin="round"/>
<path d="M52.9619 35L28.7129 49L1 33L4.46387 31L28.7129 45L46.0332 35V30.999L52.9619 35Z" stroke="white" stroke-miterlimit="1.41421" stroke-linejoin="round"/>
<path d="M42.5693 9L28.7129 17L42.5693 25L28.7129 33L1 17L28.7129 1L42.5693 9Z" stroke="white" stroke-miterlimit="1.41421" stroke-linejoin="round"/>
<path d="M56.4258 57L52.9619 63L28.7129 77V65L56.4258 49V57Z" fill="url(#paint6_linear_1842_295)"/>
<path d="M56.4258 37V45L28.7129 61V49L52.9619 35L56.4258 37Z" fill="url(#paint7_linear_1842_295)"/>
<path d="M46.0332 27V35L28.7129 45V33L42.5693 25L46.0332 27Z" fill="url(#paint8_linear_1842_295)"/>
<path d="M42.5693 21L39.1045 23L28.7129 17L42.5693 9V21Z" fill="url(#paint9_linear_1842_295)"/>
<path d="M56.4258 57L52.9619 63L28.7129 77V65L56.4258 49V57Z" stroke="white" stroke-miterlimit="1.41421" stroke-linejoin="round"/>
<path d="M56.4258 37V45L28.7129 61V49L52.9619 35L56.4258 37Z" stroke="white" stroke-miterlimit="1.41421" stroke-linejoin="round"/>
<path d="M46.0332 27V35L28.7129 45V33L42.5693 25L46.0332 27Z" stroke="white" stroke-miterlimit="1.41421" stroke-linejoin="round"/>
<path d="M42.5693 21L39.1045 23L28.7129 17L42.5693 9V21Z" stroke="white" stroke-miterlimit="1.41421" stroke-linejoin="round"/>
<defs>
<linearGradient id="paint0_linear_1842_295" x1="-6.5" y1="7.58994e-07" x2="53.5" y2="76" gradientUnits="userSpaceOnUse">
<stop stop-color="#07F49E"/>
<stop offset="1" stop-color="#42047E"/>
</linearGradient>
<linearGradient id="paint1_linear_1842_295" x1="-6.5" y1="7.58994e-07" x2="53.5" y2="76" gradientUnits="userSpaceOnUse">
<stop stop-color="#07F49E"/>
<stop offset="1" stop-color="#42047E"/>
</linearGradient>
<linearGradient id="paint2_linear_1842_295" x1="-6.5" y1="7.58994e-07" x2="53.5" y2="76" gradientUnits="userSpaceOnUse">
<stop stop-color="#07F49E"/>
<stop offset="1" stop-color="#42047E"/>
</linearGradient>
<linearGradient id="paint3_linear_1842_295" x1="1" y1="3" x2="50.5" y2="86.5" gradientUnits="userSpaceOnUse">
<stop stop-color="#07F49E"/>
<stop offset="1" stop-color="#42047E"/>
</linearGradient>
<linearGradient id="paint4_linear_1842_295" x1="1" y1="3" x2="50.5" y2="86.5" gradientUnits="userSpaceOnUse">
<stop stop-color="#07F49E"/>
<stop offset="1" stop-color="#42047E"/>
</linearGradient>
<linearGradient id="paint5_linear_1842_295" x1="1" y1="3" x2="50.5" y2="86.5" gradientUnits="userSpaceOnUse">
<stop stop-color="#07F49E"/>
<stop offset="1" stop-color="#42047E"/>
</linearGradient>
<linearGradient id="paint6_linear_1842_295" x1="-6.5" y1="-38.5" x2="61.5" y2="69.5" gradientUnits="userSpaceOnUse">
<stop stop-color="#07F49E"/>
<stop offset="1" stop-color="#42047E"/>
</linearGradient>
<linearGradient id="paint7_linear_1842_295" x1="-6.5" y1="-38.5" x2="61.5" y2="69.5" gradientUnits="userSpaceOnUse">
<stop stop-color="#07F49E"/>
<stop offset="1" stop-color="#42047E"/>
</linearGradient>
<linearGradient id="paint8_linear_1842_295" x1="-6.5" y1="-38.5" x2="61.5" y2="69.5" gradientUnits="userSpaceOnUse">
<stop stop-color="#07F49E"/>
<stop offset="1" stop-color="#42047E"/>
</linearGradient>
<linearGradient id="paint9_linear_1842_295" x1="-6.5" y1="-38.5" x2="61.5" y2="69.5" gradientUnits="userSpaceOnUse">
<stop stop-color="#07F49E"/>
<stop offset="1" stop-color="#42047E"/>
</linearGradient>
</defs>
</svg>
